<?xml version="1.0" standalone="no"?>
<!DOCTYPE svg PUBLIC "-//W3C//DTD SVG 20010904//EN"
 "http://www.w3.org/TR/2001/REC-SVG-20010904/DTD/svg10.dtd">
<svg version="1.0" xmlns="http://www.w3.org/2000/svg"
 width="500.000000pt" height="500.000000pt" viewBox="0 0 500.000000 500.000000"
 preserveAspectRatio="xMidYMid meet">
<metadata>
Created by potrace 1.11, written by Peter Selinger 2001-2013
</metadata>
<g transform="translate(0.000000,500.000000) scale(0.100000,-0.100000)"
fill="#000000" stroke="none">
<path d="M3289 3737 c-104 -30 -191 -105 -237 -206 -21 -46 -26 -71 -26 -141
0 -116 26 -182 104 -260 77 -77 144 -104 260 -104 75 0 93 3 151 32 79 38 140
100 177 180 23 48 27 71 27 147 0 82 -3 97 -32 156 -61 123 -171 197 -306 205
-42 2 -91 -1 -118 -9z"/>
<path d="M1552 3639 c-96 -16 -180 -70 -236 -152 -101 -150 -81 -343 50 -467
82 -77 128 -95 249 -95 121 0 167 18 249 95 78 74 110 149 111 260 0 75 -4 93
-32 152 -50 105 -149 186 -249 203 -76 12 -89 13 -142 4z"/>
<path d="M2687 1770 c-560 -59 -1021 -111 -1024 -114 -5 -5 13 -195 19 -201 2
-2 235 -41 520 -87 l516 -84 474 178 c260 97 492 185 516 194 l44 16 -6 47
c-3 25 -8 72 -12 104 -4 33 -11 57 -18 56 -6 -1 -469 -50 -1029 -109z"/>
</g>
</svg>
